<?xml version="1.0" encoding="iso-8859-1"?>
<!-- Generator: Adobe Illustrator 19.0.0, SVG Export Plug-In . SVG Version: 6.00 Build 0)  -->
<svg version="1.1" id="Layer_1" xmlns="http://www.w3.org/2000/svg" xmlns:xlink="http://www.w3.org/1999/xlink" x="0px" y="0px"
	 viewBox="0 0 512 512" style="enable-background:new 0 0 512 512;" xml:space="preserve">
<path style="fill:#F74D37;" d="M260.378,196.213c24.932,0,36.548,3.689,49.995,7.96c14.217,4.515,30.33,9.633,60.791,9.633
	s46.574-5.118,60.792-9.633c13.45-4.271,25.065-7.96,49.999-7.96h17.828V19.811h-17.828c-30.46,0-46.574,5.118-60.79,9.633
	c-13.45,4.271-25.065,7.96-50,7.96c-24.933,0-36.549-3.69-49.996-7.96c-14.217-4.515-30.329-9.633-60.789-9.633v176.402H260.378z"/>
<polygon style="fill:#69351D;" points="260.378,0 242.626,0 242.626,382.101 260.378,382.101 278.283,382.101 278.283,0 "/>
<rect x="260.374" style="fill:#592D19;" width="17.909" height="382.108"/>
<path style="fill:#D8D9DD;" d="M260.376,363.11C155.764,363.11,65.35,423.859,22.46,512h475.836
	C455.405,423.86,364.989,363.11,260.376,363.11z"/>
<path style="fill:#B7B9C0;" d="M260.376,363.11c0,46.94,0,96.43,0,148.89h237.92C455.405,423.86,364.989,363.11,260.376,363.11z"/>
<path style="fill:#9B9DA6;" d="M366.703,453.483c-32.318,0-58.517,26.199-58.517,58.517h117.033
	C425.219,479.682,399.02,453.483,366.703,453.483z"/>
<path style="fill:#B7B9C0;" d="M142.711,473.464c32.318,0,58.517-26.199,58.517-58.517c0-15.882-6.337-30.277-16.609-40.821
	c-36.954,11.032-70.515,29.925-98.745,54.742C92.122,454.463,115.191,473.464,142.711,473.464z"/>
<polygon style="fill:#F9D026;" points="203.332,84.223 192.313,50.313 157.781,61.533 157.781,25.222 139.073,25.222 
	122.125,25.222 122.125,61.533 87.589,50.313 76.572,84.223 111.107,95.443 89.763,124.82 118.608,145.779 139.073,117.611 
	139.952,116.401 161.296,145.779 190.142,124.82 168.798,95.443 "/>
<polygon style="fill:#E7C224;" points="203.332,84.223 192.313,50.313 157.781,61.533 157.781,25.222 139.073,25.222 
	139.073,117.611 139.952,116.401 161.296,145.779 190.142,124.82 168.798,95.445 "/>
<polygon style="fill:#F9D026;" points="138.977,291.779 127.958,257.869 93.425,269.089 93.425,232.777 74.718,232.777 
	57.77,232.777 57.77,269.09 23.234,257.869 12.217,291.779 46.752,303 25.407,332.376 54.253,353.335 74.718,325.167 
	75.597,323.957 96.941,353.335 125.786,332.376 104.443,303 "/>
<polygon style="fill:#E7C224;" points="138.977,291.779 127.958,257.869 93.425,269.089 93.425,232.777 74.718,232.777 
	74.718,325.168 75.597,323.957 96.941,353.335 125.787,332.376 104.443,303 "/>
<g>
</g>
<g>
</g>
<g>
</g>
<g>
</g>
<g>
</g>
<g>
</g>
<g>
</g>
<g>
</g>
<g>
</g>
<g>
</g>
<g>
</g>
<g>
</g>
<g>
</g>
<g>
</g>
<g>
</g>
</svg>
