<?xml version="1.0" encoding="iso-8859-1"?>
<!-- Generator: Adobe Illustrator 19.0.0, SVG Export Plug-In . SVG Version: 6.00 Build 0)  -->
<svg version="1.1" id="Layer_1" xmlns="http://www.w3.org/2000/svg" xmlns:xlink="http://www.w3.org/1999/xlink" x="0px" y="0px"
	 viewBox="0 0 319.748 319.748" style="enable-background:new 0 0 319.748 319.748;" xml:space="preserve">
<g id="XMLID_783_">
	<path id="XMLID_784_" d="M192.078,26.649c-4.878-2.61-10.795-2.324-15.398,0.744L90.458,84.874H15c-8.284,0-15,6.716-15,15v120
		c0,8.284,6.716,15,15,15h75.458l86.221,57.481c2.51,1.673,5.411,2.519,8.321,2.519c2.426,0,4.859-0.588,7.077-1.775
		c4.878-2.61,7.922-7.693,7.922-13.225v-240C200,34.342,196.955,29.259,192.078,26.649z M170,251.846l-66.68-44.453
		c-2.464-1.643-5.359-2.519-8.32-2.519H30v-90h65c2.961,0,5.856-0.877,8.32-2.519L170,67.902V251.846z"/>
	<path id="XMLID_787_" d="M301.212,159.873l14.142-14.142c5.858-5.858,5.858-15.355,0-21.213c-5.857-5.858-15.355-5.858-21.213,0
		l-14.142,14.142l-14.142-14.142c-5.857-5.858-15.356-5.858-21.213,0c-5.858,5.858-5.858,15.355,0,21.213l14.142,14.142
		l-14.142,14.142c-5.858,5.858-5.858,15.355,0,21.213c2.929,2.929,6.768,4.393,10.607,4.393c3.839,0,7.678-1.464,10.606-4.393
		l14.142-14.142l14.142,14.142c2.929,2.929,6.768,4.393,10.606,4.393c3.839,0,7.678-1.464,10.606-4.393
		c5.858-5.858,5.858-15.355,0-21.213L301.212,159.873z"/>
</g>
<g>
</g>
<g>
</g>
<g>
</g>
<g>
</g>
<g>
</g>
<g>
</g>
<g>
</g>
<g>
</g>
<g>
</g>
<g>
</g>
<g>
</g>
<g>
</g>
<g>
</g>
<g>
</g>
<g>
</g>
</svg>
