<svg version="1.1"
	 xmlns="http://www.w3.org/2000/svg" xmlns:xlink="http://www.w3.org/1999/xlink" xmlns:a="http://ns.adobe.com/AdobeSVGViewerExtensions/3.0/"
	 x="0px" y="0px" width="72px" height="72px" viewBox="0 0 72 72" style="enable-background:new 0 0 72 72;" xml:space="preserve">

<circle id="centerCircle" fill="#ffffff" cx="36" cy="36" r="10.5"/>
<path id="cog" fill="#ffffff" d="M72,41.3V31l-7.9-2.7c-0.6-2.3-1.5-4.5-2.7-6.5l3.8-7.5L57.9,7l-7.5,3.7c-2-1.2-4.2-2.1-6.5-2.7L41.3,0H31
	l-2.7,7.9c-2.3,0.6-4.5,1.5-6.5,2.7l-7.5-3.8L7,14.1l3.7,7.5c-1.2,2-2.1,4.2-2.7,6.5L0,30.7V41l7.9,2.7c0.6,2.3,1.5,4.5,2.7,6.5
	l-3.8,7.5l7.3,7.3l7.5-3.7c2,1.2,4.2,2.1,6.5,2.7l2.6,7.9H41l2.7-7.9c2.3-0.6,4.5-1.5,6.5-2.7l7.5,3.8l7.3-7.3l-3.7-7.5
	c1.2-2,2.1-4.2,2.7-6.5L72,41.3z M36,56.8c-11.5,0-20.8-9.3-20.8-20.8c0-11.5,9.3-20.8,20.8-20.8S56.8,24.5,56.8,36
	C56.8,47.5,47.5,56.8,36,56.8z"/>

</svg>
