<?xml version="1.0" encoding="iso-8859-1"?>
<!-- Generator: Adobe Illustrator 19.0.0, SVG Export Plug-In . SVG Version: 6.00 Build 0)  -->
<svg version="1.1" id="Layer_1" xmlns="http://www.w3.org/2000/svg" xmlns:xlink="http://www.w3.org/1999/xlink" x="0px" y="0px"
	 viewBox="0 0 512 512" style="enable-background:new 0 0 512 512;" xml:space="preserve">
<path style="fill:#444242;" d="M503.235,162.745c-8.439-22.618-34.478-41.748-77.391-56.855
	c-29.661-10.443-56.903-15.322-58.049-15.525l-111.795,0H144.204c-1.145,0.203-28.387,5.081-58.047,15.524
	c-42.915,15.108-68.952,34.237-77.391,56.855c-3.213,8.612-4.806,22.097,5.847,37.442c18.994,27.359,67.919,45.19,95.392,53.384
	c45.705,13.633,97.554,21.139,145.995,21.139s100.29-7.506,145.995-21.139c27.473-8.194,76.398-26.025,95.392-53.384
	C508.041,184.841,506.448,171.355,503.235,162.745z"/>
<path style="fill:#3A3839;" d="M503.235,162.745c-8.439-22.618-34.478-41.748-77.391-56.855
	c-29.661-10.443-56.903-15.322-58.049-15.525L256,90.364v184.344c48.441,0,100.29-7.506,145.995-21.139
	c27.473-8.194,76.398-26.025,95.392-53.384C508.041,184.841,506.448,171.355,503.235,162.745z"/>
<circle style="fill:#F9D026;" cx="132.308" cy="179.133" r="15.859"/>
<circle style="fill:#D3B121;" cx="379.693" cy="179.133" r="15.859"/>
<path style="fill:#BCE8F7;" d="M382.625,87.477c-9.621-25.442-26.509-47.192-48.838-62.9C310.931,8.498,284.032,0,256,0l0,0
	c-28.033,0-54.931,8.498-77.787,24.577c-22.329,15.707-39.217,37.459-48.838,62.9l-2.504,6.621l3.044,6.39
	c1.175,2.469,8.024,15.407,27.422,27.834c24.465,15.672,57.659,23.618,98.661,23.618l0,0c41.002,0,74.198-7.946,98.662-23.619
	c19.398-12.426,26.246-25.367,27.422-27.834l3.044-6.391L382.625,87.477z"/>
<path style="fill:#8EC1D6;" d="M382.625,87.477c-9.621-25.442-26.509-47.192-48.838-62.9C310.931,8.498,284.033,0,256,0l0,0v151.94
	l0,0c41.002,0,74.198-7.946,98.662-23.619c19.398-12.426,26.246-25.366,27.422-27.834l3.045-6.391L382.625,87.477z"/>
<path style="fill:#F9D026;" d="M256,188.651L256,188.651c-8.759,0-15.859,7.1-15.859,15.859c0,8.759,7.1,15.859,15.859,15.859l0,0
	c8.759,0,15.859-7.1,15.859-15.859C271.859,195.751,264.759,188.651,256,188.651z"/>
<path style="fill:#D3B121;" d="M271.859,204.509c0-8.759-7.1-15.859-15.859-15.859v31.717
	C264.759,220.368,271.859,213.268,271.859,204.509z"/>
<path style="fill:#F9D026;" d="M256,298.876L256,298.876c-94.339,0-67.344,100.872-67.344,100.872l15.332-20l8.633,72.828
	l23.225-27.921L256,512l0,0l20.154-87.345l23.225,27.921l8.633-72.828l15.332,20C323.344,399.747,350.34,298.876,256,298.876z"/>
<path style="fill:#D3B121;" d="M256,298.877V512l20.154-87.345l23.225,27.921l8.633-72.828l15.332,20
	C323.344,399.747,350.34,298.877,256,298.877z"/>
<g>
</g>
<g>
</g>
<g>
</g>
<g>
</g>
<g>
</g>
<g>
</g>
<g>
</g>
<g>
</g>
<g>
</g>
<g>
</g>
<g>
</g>
<g>
</g>
<g>
</g>
<g>
</g>
<g>
</g>
</svg>
